# xmcd CD database file
#
# Track frame offsets:
#	150
#	45083
#	63251
#	76993
#	84564
#	102991
#	120221
#	146276
#	156633
#	180250
#	203141
#	211163
#	252539
#	288130
#	308882
#
# Disc length: 4267 seconds
#
# Revision: 0
# Processed by: cddbd v1.5.2PL0 Copyright (c) Steve Scherf et al.
# Submitted via: CDex 1.51
#
DISCID=bf10a90f
DTITLE=Hagen, John - Segments
DYEAR=2002
DGENRE=Jazz
TTITLE0=Material witness
TTITLE1=Eponymy
TTITLE2=Flifght deck - Insomnia
TTITLE3=Mr. Hodges - Mr. Webster
TTITLE4=Sight unseen
TTITLE5=Colloquial
TTITLE6=Up at Ingo's
TTITLE7=Messiaen
TTITLE8=No waiting
TTITLE9=Open all night
TTITLE10=Shorter
TTITLE11=Airborne
TTITLE12=Centre market place
TTITLE13=Second Viennese school spring break
TTITLE14=Times up
EXTD=YEAR: 2002
EXTT0=
EXTT1=
EXTT2=
EXTT3=
EXTT4=
EXTT5=
EXTT6=
EXTT7=
EXTT8=
EXTT9=
EXTT10=
EXTT11=
EXTT12=
EXTT13=
EXTT14=
PLAYORDER=
